{"title":"Demi Lovato - Nightingale (Official Video) - truHD HEVC","uid":12230300,"size":49129136,"categoryP":"video","categoryS":"music_videos","magnet":"?xt=urn:btih:b73abb77111bc4a99227cad4f634f79c4ce4f7ca&amp;dn=Demi+Lovato+-+Nightingale+%28Official+Video%29+-+truHD+HEVC&amp;tr=udp%3A%2F%2Ftracker.openbittorrent.com%3A80&amp;tr=udp%3A%2F%2Fopen.demonii.com%3A1337&amp;tr=udp%3A%2F%2Ftracker.coppersurfer.tk%3A6969&amp;tr=udp%3A%2F%2Fexodus.desync.com%3A6969","seeders":1,"leechers":0,"uploader":"truHD-Encodes","files":1,"time":1439559819,"description":"Demi Lovato - Nightingale (Official Video) - truHD HEVC[/b][/color]\n\nSource File Info:\nGeneral\nFormat : MPEG-4\nFormat profile : Base Media\nCodec ID : isom\nFile size : 57.1 MiB\nDuration : 3mn 39s\nOverall bit rate : 2 182 Kbps\nWriting application : Lavf54.29.104\n\nVideo\nID : 1\nFormat : AVC\nFormat/Info : Advanced Video Codec\nFormat profile : &lt;a class=&quot;__cf_email__&quot; href=&quot;/cdn-cgi/l/email-protection&quot; data-cfemail=&quot;561e3f313e161a627866&quot;&gt;[email&amp;#160;protected]&lt;/a&gt;&lt;script data-cfhash='f9e31' type=&quot;text/javascript&quot;&gt;\n/* &lt;![CDATA[ */!function(){try{var t=&quot;currentScript&quot;in document?document.currentScript:function(){for(var t=document.getElementsByTagName(&quot;script&quot;),e=t.length;e--;)if(t[e].getAttribute(&quot;data-cfhash&quot;))return t[e]}();if(t&amp;&amp;t.previousSibling){var e,r,n,i,c=t.previousSibling,a=c.getAttribute(&quot;data-cfemail&quot;);if(a){for(e=&quot;&quot;,r=parseInt(a.substr(0,2),16),n=2;a.length-n;n+=2)i=parseInt(a.substr(n,2),16)^r,e+=String.fromCharCode(i);e=document.createTextNode(e),c.parentNode.replaceChild(e,c)}t.parentNode.removeChild(t);}}catch(u){}}()/* ]]&gt; */&lt;/script&gt;\nFormat settings, CABAC : Yes\nFormat settings, ReFrames : 3 frames\nCodec ID : avc1\nCodec ID/Info : Advanced Video Coding\nDuration : 3mn 39s\nBit rate : 2 050 Kbps\nWidth : 1 920 pixels\nHeight : 1 080 pixels\nDisplay aspect ratio : 16:9\nFrame rate mode : Variable\nFrame rate : 23.976 fps\nMinimum frame rate : 23.974 fps\nMaximum frame rate : 23.981 fps\nColor space : YUV\nChroma subsampling : 4:2:0\nBit depth : 8 bits\nScan type : Progressive\nBits/(Pixel*Frame) : 0.041\nStream size : 53.6 MiB (94%)\n\nAudio\nID : 2\nFormat : AAC\nFormat/Info : Advanced Audio Codec\nFormat profile : LC\nCodec ID : 40\nDuration : 3mn 39s\nBit rate mode : Constant\nBit rate : 126 Kbps\nChannel(s) : 2 channels\nChannel positions : Front: L R\nSampling rate : 44.1 KHz\nCompression mode : Lossy\nStream size : 3.28 MiB (6%)\n\n[color=red][b]Encoder: truHD Encoder[/b][/color]\n\nEncoded File\nGeneral\nFormat : MPEG-4\nFormat profile : Base Media\nCodec ID : isom\nFile size : 46.9 MiB\nDuration : 3mn 39s\nOverall bit rate mode : Variable\nOverall bit rate : 1 792 Kbps\nWriting application : Lavf55.33.100\n\nVideo\nID : 2\nFormat : HEVC\nFormat/Info : High Efficiency Video Coding\nCodec ID : hvc1\nCodec ID/Info : High Efficiency Video Coding\nDuration : 3mn 39s\nDuration_FirstFrame : -23ms\nBit rate : 1 664 Kbps\nWidth : 1 920 pixels\nHeight : 1 080 pixels\nDisplay aspect ratio : 16:9\nFrame rate mode : Constant\nFrame rate : 23.976 fps\nBits/(Pixel*Frame) : 0.033\nStream size : 43.5 MiB (93%)\n\nAudio\nID : 1\nFormat : AAC\nFormat/Info : Advanced Audio Codec\nFormat profile : LC\nCodec ID : 40\nDuration : 3mn 39s\nBit rate mode : Variable\nBit rate : 125 Kbps\nMaximum bit rate : 128 Kbps\nChannel(s) : 2 channels\nChannel positions : Front: L R\nSampling rate : 44.1 KHz\nCompression mode : Lossy\nStream size : 3.26 MiB (7%)\n\n Images: &lt;a href=&quot;\nhttp://someimage.com/ET9pO7m&quot; rel=&quot;nofollow&quot; target=&quot;_NEW&quot;&gt;\nhttp://someimage.com/ET9pO7m&lt;/a&gt; &lt;a href=&quot;\nhttp://someimage.com/N5nLChx&quot; rel=&quot;nofollow&quot; target=&quot;_NEW&quot;&gt;\nhttp://someimage.com/N5nLChx&lt;/a&gt; &lt;a href=&quot;\nhttp://someimage.com/IF8B0Vo&quot; rel=&quot;nofollow&quot; target=&quot;_NEW&quot;&gt;\nhttp://someimage.com/IF8B0Vo&lt;/a&gt;\n\n\n\nRequest @ FB\n\nEnjoy truHD HEVC Encode\n\nRegards truHD Team","torrent":{"xt":"urn:btih:b73abb77111bc4a99227cad4f634f79c4ce4f7ca","amp;dn":"Demi+Lovato+-+Nightingale+%28Official+Video%29+-+truHD+HEVC","amp;tr":["udp%3A%2F%2Ftracker.openbittorrent.com%3A80","udp%3A%2F%2Fopen.demonii.com%3A1337","udp%3A%2F%2Ftracker.coppersurfer.tk%3A6969","udp%3A%2F%2Fexodus.desync.com%3A6969"],"infoHash":"b73abb77111bc4a99227cad4f634f79c4ce4f7ca","infoHashBuffer":{"type":"Buffer","data":[183,58,187,119,17,27,196,169,146,39,202,212,246,52,247,156,76,228,247,202]},"announce":[],"urlList":[]}}